# Blender v2.76 (sub 0) OBJ File: 'WoodPlank.blend'
# www.blender.org
mtllib WoodPlank.mtl
o Cube
v 0.481403 -0.016196 -0.247095
v 0.757056 -0.048000 0.189767
v -1.200000 -0.048000 0.300000
v -1.199999 -0.048000 -0.300000
v 0.481403 0.048000 -0.247095
v 0.757055 0.048000 0.189767
v -1.200001 0.048000 0.300000
v -1.200000 0.048000 -0.300000
v 0.548082 -0.016196 0.057329
v -1.200000 -0.048000 -0.000000
v 0.548082 0.048000 0.057329
v -1.200000 0.048000 -0.000000
vt 0.588839 0.050000
vt 0.770290 0.050000
vt 0.770290 0.950000
vt 0.588839 0.950000
vt 0.201613 0.050000
vt 0.201613 0.950000
vt 0.020162 0.950000
vt 0.020161 0.050000
vt 0.913084 0.374600
vt 0.977600 0.374600
vt 0.977600 0.499600
vt 0.913084 0.499600
vt 0.842168 0.950000
vt 0.784103 0.950000
vt 0.784103 0.050000
vt 0.842168 0.050000
vt 0.913084 0.624600
vt 0.977600 0.624600
vt 0.977600 0.749600
vt 0.913084 0.749600
vt 0.900232 0.050000
vt 0.900232 0.950000
vt 0.407387 0.050000
vt 0.407387 0.949999
vt 0.383064 0.050000
vt 0.383065 0.950000
vt 0.913084 0.249600
vt 0.977600 0.249600
vn 0.007500 -0.997000 -0.076900
vn 0.000000 1.000000 0.000000
vn 0.535300 0.000000 -0.844700
vn 0.056200 -0.000000 0.998400
vn -1.000000 -0.000000 -0.000000
vn 0.031400 0.000000 -0.999500
vn 0.018600 -0.999800 -0.002100
vn 0.976800 -0.000000 -0.214000
usemtl Material
s off
f 9/1/1 2/2/1 3/3/1 10/4/1
f 11/5/2 12/6/2 7/7/2 6/8/2
f 9/9/3 11/10/3 6/11/3 2/12/3
f 2/13/4 6/14/4 7/15/4 3/16/4
f 10/17/5 12/18/5 8/19/5 4/20/5
f 5/16/6 1/21/6 4/22/6 8/13/6
f 1/23/7 9/1/7 10/4/7 4/24/7
f 5/25/2 8/26/2 12/6/2 11/5/2
f 1/27/8 5/28/8 11/10/8 9/9/8
f 3/12/5 7/11/5 12/18/5 10/17/5
