# Blender v2.76 (sub 0) OBJ File: 'WoodPlank.blend'
# www.blender.org
mtllib WoodPlank3.mtl
o Cube.002
v 1.200000 -0.048000 -1.300000
v 1.200000 -0.048000 -0.700000
v -1.200000 -0.048000 -0.700000
v -1.199999 -0.048000 -1.300000
v 1.200001 0.048000 -1.300000
v 1.199999 0.048000 -0.700000
v -1.199893 0.058909 -0.700000
v -1.199893 0.058909 -1.300000
v 0.167703 -0.048000 -1.248748
v -0.167703 -0.048000 -0.751252
v 0.167588 0.034296 -1.248748
v -0.167763 0.040332 -0.751252
v 1.162741 -0.046510 -1.000000
v -1.162741 -0.046510 -1.000000
v 1.162741 0.046510 -1.000000
v -1.162667 0.056749 -1.000000
v 0.000000 -0.046510 -1.000000
v -0.000114 0.035824 -1.000000
vt 0.588839 0.500000
vt 0.770290 0.500000
vt 0.770290 0.950000
vt 0.588839 0.950000
vt 0.201613 0.500000
vt 0.201613 0.950000
vt 0.020162 0.950000
vt 0.020162 0.500000
vt 0.913084 0.374600
vt 0.977600 0.374600
vt 0.977600 0.499600
vt 0.913084 0.499600
vt 0.842168 0.500000
vt 0.784103 0.500000
vt 0.784103 0.050000
vt 0.842168 0.050000
vt 0.913084 0.624600
vt 0.977600 0.624600
vt 0.977600 0.749600
vt 0.913084 0.749600
vt 0.900232 0.500000
vt 0.900232 0.950000
vt 0.842168 0.950000
vt 0.588839 0.050000
vt 0.770290 0.050000
vt 0.201613 0.050000
vt 0.020161 0.050000
vt 0.784103 0.950000
vt 0.900232 0.050000
vt 0.407387 0.500000
vt 0.407387 0.949999
vt 0.383064 0.500000
vt 0.383065 0.950000
vt 0.913084 0.249600
vt 0.977600 0.249600
vt 0.407387 0.050000
vt 0.383064 0.050000
vn -0.000100 -1.000000 -0.005500
vn 0.017900 0.999800 -0.005500
vn 0.992400 0.000000 -0.123200
vn 0.049600 -0.000000 0.998800
vn -0.992400 0.000900 0.123200
vn 0.037400 0.000000 -0.999300
vn 0.000100 -1.000000 -0.005400
vn -0.007000 0.999900 -0.012600
vn -0.037400 -0.000000 0.999300
vn -0.049600 -0.000000 -0.998800
vn -0.000100 -1.000000 0.005400
vn 0.017900 0.999800 0.005400
vn 0.992400 -0.000000 0.123300
vn -0.992400 0.000900 -0.123200
vn 0.000100 -1.000000 0.005500
vn -0.011200 0.999900 -0.004300
usemtl Material
s off
f 17/1/1 10/2/1 3/3/1 14/4/1
f 18/5/2 16/6/2 7/7/2 12/8/2
f 13/9/3 15/10/3 6/11/3 2/12/3
f 10/13/4 12/14/4 7/15/4 3/16/4
f 14/17/5 16/18/5 8/19/5 4/20/5
f 11/13/6 9/21/6 4/22/6 8/23/6
f 13/24/7 2/25/7 10/2/7 17/1/7
f 15/26/8 18/5/8 12/8/8 6/27/8
f 2/23/9 6/28/9 12/14/9 10/13/9
f 5/16/10 1/29/10 9/21/10 11/13/10
f 9/30/11 17/1/11 14/4/11 4/31/11
f 11/32/12 8/33/12 16/6/12 18/5/12
f 1/34/13 5/35/13 15/10/13 13/9/13
f 3/12/14 7/11/14 16/18/14 14/17/14
f 1/36/15 13/24/15 17/1/15 9/30/15
f 5/37/16 11/32/16 18/5/16 15/26/16
